<?xml version="1.0" standalone="no"?>
<!DOCTYPE svg PUBLIC "-//W3C//DTD SVG 20010904//EN"
 "http://www.w3.org/TR/2001/REC-SVG-20010904/DTD/svg10.dtd">
<svg version="1.0" xmlns="http://www.w3.org/2000/svg"
 width="1000.000000pt" height="1000.000000pt" viewBox="0 0 1000.000000 1000.000000"
 preserveAspectRatio="xMidYMid meet">
<metadata>
Created by potrace 1.11, written by Peter Selinger 2001-2013
</metadata>
<g transform="translate(0.000000,1000.000000) scale(0.100000,-0.100000)"
fill="#000000" stroke="none">
<path d="M4937 8254 c-1 -1 -47 -5 -102 -8 -55 -3 -113 -8 -130 -10 -133 -17
-164 -21 -193 -30 -9 -3 -30 -8 -47 -11 -45 -7 -110 -22 -110 -25 0 -1 -8 -3
-17 -5 -10 -2 -50 -13 -90 -26 -40 -13 -75 -24 -78 -24 -3 -1 -16 -6 -30 -12
-14 -6 -52 -20 -85 -32 -33 -13 -108 -47 -167 -76 -60 -29 -108 -50 -108 -47
0 4 -4 2 -8 -4 -4 -5 -41 -31 -82 -55 -125 -76 -220 -144 -340 -244 -42 -35
-255 -248 -290 -290 -65 -79 -190 -251 -190 -262 0 -7 -4 -13 -10 -13 -5 0
-10 -4 -10 -9 0 -6 -13 -30 -30 -54 -16 -25 -30 -49 -30 -55 0 -5 -7 -15 -15
-22 -8 -7 -15 -21 -15 -30 0 -10 -3 -20 -7 -22 -5 -1 -19 -28 -33 -58 -14 -30
-28 -58 -33 -61 -4 -3 -9 -16 -10 -27 -1 -12 -5 -22 -9 -22 -4 0 -8 -6 -8 -14
0 -7 -14 -46 -30 -87 -17 -41 -33 -83 -35 -94 -2 -11 -4 -21 -6 -22 -1 -2 -2
-6 -4 -10 -1 -5 -4 -15 -8 -23 -6 -15 -25 -86 -28 -105 -1 -5 -7 -30 -15 -55
-7 -24 -11 -46 -9 -48 2 -2 -1 -16 -7 -31 -5 -14 -12 -39 -14 -56 -2 -16 -6
-46 -10 -65 -37 -214 -37 -542 0 -790 10 -63 44 -214 66 -290 12 -41 22 -81
22 -87 1 -7 6 -13 11 -13 6 0 8 -3 4 -6 -3 -4 3 -29 14 -58 11 -28 21 -55 23
-61 1 -5 11 -30 22 -55 11 -25 29 -65 40 -90 10 -25 36 -76 56 -114 21 -38 38
-73 38 -77 0 -5 5 -9 10 -9 6 0 10 -6 10 -13 0 -14 121 -201 151 -233 10 -11
19 -26 19 -32 0 -7 3 -12 6 -12 8 0 73 40 91 55 7 5 19 16 27 22 8 7 46 30 83
50 64 36 73 38 153 38 69 -1 93 -5 130 -24 48 -25 127 -77 147 -97 22 -21 82
-55 114 -64 27 -8 42 -5 85 16 28 14 61 34 72 44 41 39 158 107 202 118 66 18
157 9 216 -21 27 -14 81 -48 119 -76 101 -74 143 -93 183 -81 33 9 154 86 160
102 2 4 10 8 18 8 8 0 14 3 14 8 0 16 107 62 155 67 22 2 42 4 45 6 3 1 10 0
15 -1 6 -1 19 -4 30 -5 47 -5 84 -21 150 -63 39 -24 72 -48 75 -52 9 -14 105
-67 131 -74 36 -8 104 29 224 121 65 50 156 77 236 70 67 -7 129 -36 214 -100
87 -65 150 -97 183 -91 26 5 90 39 122 66 9 7 24 29 33 48 34 66 72 135 93
165 11 17 29 48 39 70 9 22 26 58 36 79 11 22 19 47 19 57 0 9 7 22 15 29 9 7
13 15 11 18 -3 2 -1 12 4 22 14 25 77 240 84 284 4 21 8 41 10 45 9 14 20 150
20 231 -1 121 -9 174 -43 280 -30 93 -56 118 -186 179 -38 18 -77 37 -85 41
-8 5 -35 19 -59 31 -64 32 -128 103 -172 191 -22 43 -39 79 -38 80 0 2 -5 17
-11 33 -38 94 -54 231 -38 314 13 66 12 62 35 111 38 85 135 175 268 250 33
19 62 37 63 42 2 4 8 8 14 8 20 0 107 76 133 118 30 47 48 109 34 118 -5 3 -9
12 -9 20 0 49 -86 83 -187 73 -37 -4 -100 -6 -139 -4 -93 3 -127 23 -162 95
-23 47 -27 67 -26 140 1 90 7 127 28 169 31 60 106 96 160 78 45 -15 149 -99
296 -239 39 -38 132 -139 167 -183 64 -79 151 -198 165 -224 7 -14 15 -28 19
-31 27 -25 148 -270 199 -405 34 -89 74 -217 95 -305 2 -8 4 -15 5 -15 1 0 3
-13 5 -30 2 -16 6 -41 9 -55 33 -148 50 -458 32 -607 -3 -29 -8 -74 -11 -101
-3 -26 -17 -99 -31 -162 -14 -63 -26 -122 -28 -130 -2 -8 -6 -22 -9 -30 -3 -8
-23 -71 -45 -140 -23 -69 -55 -157 -73 -195 -18 -39 -33 -74 -34 -80 -2 -5
-19 -39 -39 -73 -20 -35 -36 -66 -36 -68 0 -5 -52 -86 -60 -94 -3 -3 -11 -17
-18 -31 -8 -14 -25 -39 -38 -54 -13 -15 -24 -31 -24 -35 0 -3 -9 -16 -20 -27
-22 -25 -26 -20 80 -92 87 -60 70 -69 185 103 78 118 205 354 205 382 0 8 4
14 10 14 5 0 9 3 8 8 -2 6 25 82 68 192 20 50 68 241 80 315 2 17 8 41 11 55
4 14 7 32 8 40 4 36 17 138 21 170 12 93 5 431 -11 531 -2 13 -9 58 -15 99
-20 128 -73 339 -101 405 -4 11 -24 61 -43 111 -19 50 -60 143 -91 205 -32 63
-63 124 -69 136 -6 13 -14 23 -18 23 -5 0 -8 5 -8 11 0 12 -98 160 -156 237
-89 117 -273 310 -379 398 -33 27 -65 54 -71 59 -6 6 -22 17 -34 25 -12 8 -28
20 -34 25 -76 67 -424 265 -465 265 -6 0 -11 5 -11 10 0 6 -8 10 -18 10 -10 0
-22 3 -26 7 -5 6 -59 27 -91 37 -15 5 -48 17 -70 26 -48 21 -280 81 -365 94
-135 21 -170 25 -265 32 -81 6 -245 11 -248 8z m193 -208 c92 -10 122 -23 98
-44 -14 -11 -26 -16 -313 -122 -93 -34 -208 -80 -253 -101 -46 -22 -86 -39
-88 -39 -7 0 -107 -71 -130 -91 -11 -11 -24 -19 -29 -19 -4 0 -23 -11 -41 -25
-18 -14 -35 -25 -39 -25 -3 0 -11 -5 -18 -11 -11 -10 -199 -129 -242 -153 -87
-50 -138 -96 -154 -139 -21 -61 11 -176 67 -234 50 -53 76 -63 218 -89 90 -16
240 -72 379 -141 133 -66 150 -76 290 -169 119 -79 172 -124 226 -194 38 -50
94 -150 83 -150 -3 0 -2 -6 4 -12 6 -7 11 -17 11 -23 1 -5 4 -28 8 -50 20
-123 -15 -265 -99 -400 -37 -60 -119 -140 -168 -165 -38 -19 -155 -56 -209
-65 -19 -3 -42 -10 -52 -16 -11 -5 -19 -8 -19 -5 0 11 -172 -67 -219 -99 -36
-25 -131 -126 -156 -166 -16 -24 -31 -46 -35 -49 -15 -12 -115 -226 -126 -269
-2 -9 -11 -36 -20 -61 -9 -25 -18 -54 -20 -65 -2 -11 -11 -47 -20 -80 -9 -33
-18 -68 -19 -77 -2 -9 -8 -25 -14 -35 -10 -20 -39 -155 -44 -208 -2 -17 -6
-35 -9 -40 -3 -6 -9 -25 -13 -42 -12 -59 -98 -105 -141 -75 -16 11 -94 117
-94 129 0 5 -8 18 -17 29 -25 27 -108 200 -118 244 -2 8 -10 34 -19 58 -9 24
-15 46 -15 50 1 4 0 9 -1 12 -11 29 -14 172 -5 285 6 89 15 179 20 215 3 19 7
58 10 85 10 95 11 101 16 110 11 24 3 152 -12 180 -24 47 -43 80 -50 85 -3 3
-42 52 -85 110 -94 123 -118 184 -110 278 11 130 43 192 186 363 142 170 153
197 118 279 -34 79 -143 146 -347 212 -124 40 -152 62 -141 114 4 19 21 51 36
72 30 39 218 229 269 272 116 96 333 250 353 250 5 0 15 7 22 15 7 9 15 13 18
11 3 -3 17 3 31 13 32 22 181 93 236 112 22 8 42 16 45 19 5 6 140 49 153 50
4 0 23 6 42 14 19 8 51 17 72 21 21 3 52 10 69 16 18 5 47 11 65 13 19 2 50 7
69 11 56 11 79 13 180 21 52 3 96 7 97 8 4 3 164 -3 213 -8z"/>
<path d="M1642 4134 c-22 -10 -43 -63 -39 -99 6 -48 30 -81 67 -89 38 -7 100
-35 118 -53 7 -7 17 -13 20 -13 4 0 18 -10 32 -22 37 -34 99 -72 149 -92 65
-25 183 -22 219 6 6 6 12 8 12 4 0 -8 73 39 127 81 23 18 46 33 52 33 6 0 11
4 11 8 0 14 69 42 102 42 35 0 68 -18 184 -102 183 -131 288 -124 503 33 39
28 89 57 113 63 39 12 46 11 88 -12 25 -14 70 -43 100 -66 166 -124 294 -141
425 -57 58 37 149 104 157 116 4 5 8 6 8 1 0 -4 11 -1 25 8 43 28 85 20 161
-30 38 -26 71 -51 72 -55 2 -5 10 -9 18 -9 8 0 14 -4 14 -9 0 -5 8 -11 18 -14
9 -3 28 -12 42 -21 46 -27 76 -35 140 -37 55 -2 126 17 161 42 15 10 31 19 36
19 5 0 18 9 30 19 11 11 51 40 87 65 106 73 104 73 332 -82 34 -23 69 -42 77
-42 9 0 18 -4 21 -8 2 -4 17 -9 33 -10 15 -1 37 -4 48 -6 11 -2 46 3 78 11 56
13 99 36 219 122 74 52 120 71 141 59 10 -5 17 -6 17 -3 0 6 52 -21 75 -38
100 -75 179 -126 195 -124 3 0 15 -5 28 -12 47 -25 193 -10 232 24 8 7 24 15
35 19 11 3 31 16 45 28 71 64 171 119 200 110 50 -15 111 -52 190 -115 62 -50
175 -88 235 -80 38 5 69 11 73 14 1 1 5 2 10 3 20 5 85 45 158 97 90 65 155
94 173 76 6 -6 11 -8 11 -3 0 7 59 -22 70 -34 21 -23 174 -120 211 -134 99
-36 229 -13 314 57 77 63 159 112 206 121 44 9 73 42 75 87 2 58 -4 73 -37 93
-37 22 -113 16 -169 -13 -54 -28 -84 -45 -90 -51 -13 -13 -79 -60 -85 -60 -3
0 -16 -9 -27 -20 -12 -11 -38 -25 -57 -30 -29 -8 -43 -6 -76 11 -22 12 -42 24
-45 28 -10 12 -101 71 -110 71 -6 0 -10 4 -10 8 0 19 -116 65 -177 70 -83 6
-145 -15 -250 -86 -46 -31 -92 -61 -101 -67 -9 -5 -19 -13 -22 -17 -11 -14
-59 -26 -81 -21 -26 6 -172 100 -177 114 -2 5 -10 9 -17 9 -7 0 -15 4 -17 8
-1 4 -25 19 -53 32 -41 20 -66 24 -135 24 -101 0 -142 -17 -265 -107 -90 -67
-118 -80 -158 -78 -25 1 -141 68 -179 103 -16 15 -46 33 -103 62 -49 25 -181
29 -235 7 -31 -13 -107 -58 -120 -71 -14 -14 -102 -70 -110 -70 -6 0 -10 -4
-10 -9 0 -16 -58 -30 -87 -22 -25 7 -151 89 -180 117 -6 6 -37 24 -70 40 -45
22 -74 29 -130 31 -103 3 -125 -7 -327 -143 -92 -62 -111 -62 -212 6 -43 29
-81 56 -84 59 -3 3 -16 12 -30 20 -66 38 -106 52 -165 58 -81 7 -144 -12 -237
-75 -38 -26 -77 -51 -86 -57 -9 -5 -23 -16 -31 -23 -16 -15 -50 -30 -85 -36
-23 -4 -136 59 -183 103 -12 12 -25 21 -29 21 -3 0 -19 9 -35 21 -16 11 -35
22 -42 23 -7 1 -18 6 -26 10 -30 19 -156 16 -212 -5 -30 -12 -56 -24 -59 -27
-3 -4 -17 -13 -32 -21 -16 -8 -28 -18 -28 -23 0 -4 -6 -8 -14 -8 -8 0 -16 -3
-18 -7 -4 -10 -55 -46 -94 -66 -62 -32 -78 -29 -160 26 -198 134 -240 152
-339 144 -61 -4 -155 -42 -192 -76 -10 -9 -36 -28 -58 -41 -22 -13 -46 -30
-53 -37 -23 -23 -80 -42 -104 -36 -29 8 -52 21 -175 103 -54 37 -111 70 -128
76 -34 11 -113 16 -133 8z"/>
</g>
</svg>
